<?xml version="1.0" encoding="UTF-8"?>
<svg id="CENTRAL" xmlns="http://www.w3.org/2000/svg" version="1.1" viewBox="0 0 424.7 197.4">
  <!-- Generator: Adobe Illustrator 29.2.1, SVG Export Plug-In . SVG Version: 2.1.0 Build 116)  -->
  <defs>
    <style>
      .st0 {
        fill: #fff;
      }
    </style>
  </defs>
  <path class="st0" d="M138.2,79.2v117c-1.6.6-16,.8-19.2.3V2.5h23.5c.4,2.3.8,4.5,1.2,6.8,2.4,14.2,4.8,28.5,7.1,42.7,2.1,12.4,4.2,24.8,6.2,37.2,1.4,9.2,2.6,18.4,3.9,27.7,0,.3.1.7.2,1,.2,0,.3,0,.3,0,0,0,0-.1,0-.2,0-.1,0-.3,0-.4,0-.4,0-.9,0-1.3,0-37.7,0-75.4,0-113.1,0,0,0-.1.2-.5,6,0,12.2,0,18.4,0,0,64.8,0,129.4,0,194-1.5.5-14.6.7-19.1.2-.4-1.7-.8-3.5-1.1-5.3-4.7-23.6-9.4-47.3-14-70.9-2.5-12.8-4.7-25.6-7-38.4-.2-1-.4-1.9-.6-2.8-.1,0-.2,0-.3,0Z"/>
  <path class="st0" d="M268,113.5c0,27.8,0,55.4,0,83.1h-22.9c-.5-1.7-.6-191.2-.1-194,.5,0,1.1-.1,1.6-.2,9.2,0,18.4,0,27.6,0,2.5,0,5.1.3,7.6.8,7,1.5,12,5.7,15.1,12.1,2.3,4.6,3.3,9.6,3.3,14.6,0,18.1,0,36.1,0,54.2,0,4.2-1.3,8-3.7,11.4-1.8,2.5-4,4.8-6.1,7.4.4.4,1,.9,1.6,1.4,4.3,3.8,7.6,8.3,8.6,14.1.3,2,.5,4,.5,5.9,0,14,0,28,0,42,0,9.1,1.2,18,2.5,27,.1.8.2,1.7.3,2.5,0,.2,0,.4-.2.8-.7,0-1.4,0-2.1,0-5.3,0-10.7,0-16,0-2.5,0-3.2-.3-3.9-2.7-.9-3.1-1.7-6.3-2.1-9.5-1.1-7.5-1.4-15-1.4-22.5,0-13.6,0-27.2,0-40.8,0-1.8-.2-3.6-1-5.2-.9-1.6-2.1-2.6-4.1-2.5-1.6,0-3.2,0-5,0ZM268.1,90.9c1.9,0,3.5,0,5.2,0,1.9,0,3.1-1,3.6-2.7.4-1.4.6-2.8.6-4.2,0-16.9,0-33.8,0-50.8,0-1.7-.5-3.4-.9-5-.3-1.1-1.1-1.8-2.3-2-2.1-.4-4.2-.3-6.3-.2v64.9Z"/>
  <path class="st0" d="M324.8,2.5h25.4c.8,1.4,17.9,190.9,18.1,193.9-1.4.4-19.6.6-23.4.2-.1-1.3-.3-2.6-.3-3.9-.4-9.2-.7-18.3-1.1-27.5,0-1.1-.2-2.3-.3-3.3-1.6-.5-8.9-.6-12.9-.2-1,11.6-1.5,23.3-2.4,35h-20.1c-.3-1.4,5.8-69.5,8.4-97,3.1-32.3,5.8-64.6,8.8-97.1ZM337.6,57.3c-1.8,26.3-3.6,52.5-5.4,79h9.5c-1.2-26.4-2.5-52.7-4.1-79Z"/>
  <path class="st0" d="M62.4,70.4h-19c0-.9,0-1.6-.1-2.4,0-11.2,0-22.5,0-33.7,0-1.6-.1-3.3-.5-4.9-.7-3-3.1-4.6-6.1-4.6-2.8,0-5.1,1.6-5.9,4.4-.4,1.4-.6,2.9-.6,4.4,0,43.1,0,86.2,0,129.3,0,2,0,4,.3,5.9.7,4.3,4.6,6.4,8.7,4.9,1.8-.7,3-1.9,3.5-3.8.4-1.6.6-3.4.6-5.1,0-11,0-22.1,0-33.1,0-1.1,0-2.1,0-3.1,2-.7,15.6-.9,19-.3,0,.6.1,1.2.1,1.8,0,12.9,0,25.9,0,38.8,0,5.7-1.3,11.2-3.8,16.3-4.2,8.5-11,13.1-20.6,13.6-12.6.7-23.4-6.7-28.4-18.4-1.9-4.4-2.8-9.1-2.8-13.9,0-44.7,0-89.5,0-134.2,0-9.6,3.3-18.1,10.4-24.6C25.5.3,35-1.9,45.6,1.6c5.5,1.8,9.5,5.7,12.3,10.7,3,5.4,4.5,11.3,4.6,17.4.2,13.1,0,26.2,0,39.3,0,.4,0,.8,0,1.5Z"/>
  <path class="st0" d="M90.5,84.7h16.3v23.7h-16.4v64.8h24.3v23.2c-1.6.5-41.2.8-46.7.3,0,0-.1,0-.2-.1,0,0-.1-.1-.1-.2,0-.5-.1-1-.1-1.5,0-64,0-127.9,0-191.9,0-.1.1-.2.2-.5h46.8v23.3c-2.7.2-5.4,0-8.1.1-2.6,0-5.3,0-7.9,0-2.7,0-5.4,0-8.3,0v58.7Z"/>
  <path class="st0" d="M241,27.4h-16.8v169.3h-22.8c0,0-.1-.1-.2-.2,0,0,0-.1,0-.2,0-.1,0-.3,0-.4,0,0,0-.1,0-.2,0-.1,0-.3,0-.4,0-.2,0-.4,0-.6,0-55.2,0-110.4,0-165.6,0-.1,0-.3,0-.4,0,0,0-.1,0-.2,0-.1,0-.3,0-.4,0,0,0-.1-.2-.4h-16.4c-.5-1.7-.6-21-.2-25,4.7-.2,9.4,0,14.2,0,4.7,0,9.4,0,14.1,0h28.5v25Z"/>
  <path class="st0" d="M395.2,174.1h23v22.3c-1.6.4-43.2.5-45.6,0V2.8c1.5-.5,19.7-.6,22.5-.1v171.4Z"/>
</svg>